# xmcd
#
# Track frame offsets: 
#        150
#        14700
#        43186
#        59331
#        76351
#        88514
#        110965
#        129173
#        140668
#        166545
#        184265
#        199157
#        222332
#        232676
#        244825
#        265959
#        280407
#        298677
#        309132
#
# Disc length: 4307 seconds
#
# Revision: 0
# Processed by: cddbd v1.5.1PL0 Copyright (c) Steve Scherf et al.
# Submitted via: ExactAudioCopy v0.95a2
#
DISCID=1710d113
DTITLE=L. C. 'Good Rockin' Robinson - Mojo In My Hand
DYEAR=1996
DGENRE=Blues
TTITLE0=Mojo In My Hand
TTITLE1=Ups And Downs
TTITLE2=Pinetop's Boogie Woogie
TTITLE3=Acoss The Bay Blues
TTITLE4=L. C.'s Shuffle
TTITLE5=Can't Be A Winner
TTITLE6=I've Got To Go
TTITLE7=Stop And Jump
TTITLE8=She Got It From The Start
TTITLE9=Things' So Bad In California
TTITLE10=New Train Time
TTITLE11=I'm Just A Country Boy
TTITLE12=L. C.'s Theme
TTITLE13=Jesus, Did I Know
TTITLE14=I Don't Know What I Would Do Without The Lord
TTITLE15=Something Mighty Sweet About The Lord
TTITLE16=Ida Red
TTITLE17=L. C.'s Blues
TTITLE18=Sweet Jesus
EXTD=
EXTT0=
EXTT1=
EXTT2=
EXTT3=
EXTT4=
EXTT5=
EXTT6=
EXTT7=
EXTT8=
EXTT9=
EXTT10=
EXTT11=
EXTT12=
EXTT13=
EXTT14=
EXTT15=
EXTT16=
EXTT17=
EXTT18=
PLAYORDER=
